<?xml version="1.0" encoding="UTF-8"?>
<svg id="Camada_1" data-name="Camada 1" xmlns="http://www.w3.org/2000/svg" version="1.1" viewBox="0 0 500 500">
  <defs>
    <style>
      .cls-1 {
        fill: #f8a6a6;
        stroke-width: 0px;
      }
    </style>
  </defs>
  <path class="cls-1" d="M94.2,324.4c0-23.4,10.7-40.5,22.1-47.9l2.3,3c-11,8-20.4,22.4-20.4,44.8,0,33.1,25.8,58.6,65.6,58.6s59.9-26.8,59.9-71.6v-182.1h20.1v177c0,49.2-30.8,81-78,81s-71.6-27.8-71.6-62.9h0Z"/>
  <path class="cls-1" d="M357.6,275c-12.6-24.4-18-42.3-58.4-46.3,46.2-7.3,64-27.6,63.7-61.1-.3-38.5-32.5-54.9-73-54.9h-66.3v124.9c4,0,13.3-.3,20.7-.4v-5.4h36.5c37.8,0,41.5,15.7,56.9,46.2l46.2,90.4h21.8l-48.2-93.4h0ZM254.2,227.9h-9.7l-.7-111.1h42.2c40.5,0,58.2,17.7,58.6,50.9.3,37.5-21.4,60.2-90.4,60.2h0Z"/>
</svg>