<?xml version="1.0" encoding="UTF-8"?>
<svg id="Camada_1" data-name="Camada 1" xmlns="http://www.w3.org/2000/svg" viewBox="0 0 500 500">
  <defs>
    <style>
      .cls-1 {
        fill: #f5f5f5;
        stroke-width: 0px;
      }
    </style>
  </defs>
  <path class="cls-1" d="M94.22,324.35c0-23.42,10.71-40.49,22.09-47.85l2.34,3.01c-11.04,8.03-20.41,22.42-20.41,44.84,0,33.13,25.77,58.56,65.59,58.56s59.9-26.77,59.9-71.61v-182.05h20.08v177.03c0,49.19-30.79,80.98-77.97,80.98-43.84,0-71.61-27.78-71.61-62.91Z"/>
  <path class="cls-1" d="M357.59,275.04c-12.63-24.38-18.05-42.31-58.35-46.33,46.23-7.34,63.97-27.55,63.7-61.09-.33-38.48-32.46-54.88-72.95-54.88h-66.26v124.88c4.02-.01,13.27-.26,20.72-.35l.03-5.4h36.48c37.82,0,41.5,15.73,56.89,46.18l46.18,90.35h21.75l-48.19-93.37ZM254.18,227.85h-9.7l-.67-111.1h42.17c40.49,0,58.23,17.74,58.56,50.87.33,37.48-21.42,60.24-90.35,60.24Z"/>
</svg>